<svg width="24" height="5" viewBox="0 0 24 5" fill="none" xmlns="http://www.w3.org/2000/svg">
<path d="M0.696046 4.63306C0.391526 4.63306 0.174011 4.5243 0.0435029 4.30679C-0.0435029 4.08927 0 3.87176 0.174012 3.65424C1.13107 2.47966 2.10989 1.58785 3.11046 0.978814C4.15453 0.32627 5.2421 0 6.37317 0C7.37374 0 8.65707 0.304519 10.2232 0.913559L14.53 2.54492C15.139 2.76243 15.6828 2.93644 16.1613 3.06695C16.6834 3.19746 17.1836 3.26272 17.6622 3.26272C18.5322 3.26272 19.337 3.0452 20.0766 2.61018C20.8161 2.17515 21.6644 1.41384 22.6215 0.326271C22.839 0.108756 23.0565 0 23.274 0C23.5786 0 23.7961 0.108756 23.9266 0.326271C24.0571 0.543786 24.0136 0.7613 23.7961 0.978814C22.839 2.15339 21.8384 3.06695 20.7944 3.7195C19.7938 4.32854 18.728 4.63306 17.5969 4.63306C16.5964 4.63306 15.313 4.32854 13.7469 3.7195L9.44013 2.08814C8.87459 1.87062 8.3308 1.69661 7.80877 1.56611C7.28673 1.4356 6.78645 1.37034 6.30792 1.37034C5.48136 1.37034 4.67656 1.58785 3.89351 2.02288C3.15396 2.45791 2.30565 3.21921 1.34859 4.30679C1.13108 4.5243 0.913561 4.63306 0.696046 4.63306Z" fill="#5A3640"/>
</svg>
