<svg width="40" height="40" viewBox="0 0 40 40" fill="none" xmlns="http://www.w3.org/2000/svg">
<g clip-path="url(#clip0_105_352)">
<path d="M8.44205 3.94055H37.6561V5.53719H39.9999V0H37.6561V1.59664H8.44205V0H6.09814V5.53719H8.44205V3.94055Z" fill="#7A5A5D"/>
<path d="M3.94734 9.5817H5.54398V7.23779H0.00679688V9.5817H1.60344V37.6331L0.0135938 37.6238L0 39.9676L5.53719 39.9998L5.55078 37.656L3.94734 37.6467V9.5817Z" fill="#7A5A5D"/>
<path d="M33.67 7.57812H12.1904L10.5051 11.336H35.3552L33.67 7.57812Z" fill="#7A5A5D"/>
<path d="M36.406 13.6797H9.4537L7.81519 17.3333H38.0445L36.406 13.6797Z" fill="#7A5A5D"/>
<path d="M10 40.3228H18.4604V32.4981H26.4493V40.3228H35.0833V20H10V40.3228ZM15.0791 22.802H30.0357V25.1458H15.0791V22.802ZM30.0357 27.5352V29.8791H15.0791V27.5352H30.0357Z" fill="#7A5A5D"/>
<path d="M21.2793 34.519H24.5805V39.9999H21.2793V34.519Z" fill="#7A5A5D"/>
</g>
<defs>
<clipPath id="clip0_105_352">
<rect width="40" height="40" fill="white"/>
</clipPath>
</defs>
</svg>
