<svg width="40" height="40" viewBox="0 0 40 40" fill="none" xmlns="http://www.w3.org/2000/svg">
<path d="M20 11.8697C15.5198 11.8697 11.875 15.517 11.875 20C11.875 24.4831 15.5198 28.1304 20 28.1304C24.4802 28.1304 28.125 24.4831 28.125 20C28.125 15.517 24.4802 11.8697 20 11.8697ZM20 25.0033C17.243 25.0033 15 22.7589 15 20C15 17.2412 17.243 14.9968 20 14.9968C22.757 14.9968 25 17.2412 25 20C25 22.7589 22.757 25.0033 20 25.0033ZM40 20C40 25.3457 37.9196 30.3714 34.1421 34.1515C33.5317 34.7623 32.5424 34.7619 31.9324 34.1514C31.3222 33.5408 31.3223 32.5509 31.9325 31.9403C35.1197 28.751 36.875 24.5105 36.875 20C36.875 15.4896 35.1197 11.2491 31.9324 8.0598C31.3222 7.44918 31.3221 6.45926 31.9323 5.84863C32.5426 5.23801 33.5319 5.23793 34.142 5.84855C37.9196 9.62863 40 14.6543 40 20ZM8.06758 31.9403C8.67781 32.5509 8.67781 33.5409 8.06758 34.1515C7.45734 34.7622 6.46797 34.762 5.85789 34.1515C2.08031 30.3714 0 25.3457 0 20C0 14.6543 2.08031 9.62863 5.85781 5.84855C6.46797 5.23801 7.45727 5.23801 8.0675 5.84855C8.67773 6.45918 8.67773 7.44918 8.0675 8.0598C4.88031 11.2491 3.125 15.4896 3.125 20C3.125 24.5105 4.88031 28.751 8.06758 31.9403ZM12.266 27.739C12.8763 28.3496 12.8763 29.3396 12.266 29.9502C11.6558 30.5608 10.6665 30.5608 10.0563 29.9503C7.40023 27.2925 5.9375 23.7588 5.9375 20C5.9375 16.2413 7.40023 12.7076 10.0563 10.0498C10.6666 9.43918 11.6559 9.43918 12.266 10.0499C12.8763 10.6604 12.8763 11.6504 12.266 12.2611C10.2002 14.3282 9.0625 17.0766 9.0625 20C9.0625 22.9235 10.2002 25.6719 12.266 27.739ZM34.0625 20C34.0625 23.7588 32.5997 27.2925 29.9436 29.9503C29.3332 30.5611 28.3439 30.5607 27.7339 29.9502C27.1237 29.3396 27.1237 28.3496 27.734 27.739C29.7998 25.6719 30.9375 22.9235 30.9375 20C30.9375 17.0766 29.7998 14.3282 27.734 12.2611C27.1237 11.6504 27.1237 10.6605 27.7339 10.0499C28.3441 9.43926 29.3334 9.43918 29.9436 10.0498C32.5997 12.7076 34.0625 16.2413 34.0625 20Z" fill="#7A5A5D"/>
</svg>
