<svg width="40" height="40" viewBox="0 0 40 40" fill="none" xmlns="http://www.w3.org/2000/svg">
<path d="M34.1422 5.85781C30.3646 2.08039 25.3422 0 20 0C14.6578 0 9.63539 2.08039 5.85781 5.85781C2.08039 9.63539 0 14.6578 0 20C0 25.3422 2.08039 30.3646 5.85781 34.1422C9.63539 37.9196 14.6578 40 20 40C25.3422 40 30.3646 37.9196 34.1422 34.1422C37.9196 30.3646 40 25.3422 40 20C40 14.6578 37.9196 9.63539 34.1422 5.85781ZM30.5491 17.3634C30.029 22.5304 28.896 26.0196 27.1816 27.734C25.1257 29.7898 22.4243 30.8181 19.7238 30.8181C17.3906 30.8181 15.0584 30.0506 13.1409 28.5164L12.9081 28.7492C12.2205 29.4369 12.0506 30.4833 12.4855 31.3532C12.775 31.9321 12.5403 32.636 11.9615 32.9255C11.7933 33.0095 11.6145 33.0494 11.4384 33.0494C11.0084 33.0494 10.5946 32.812 10.3893 32.4013C9.5025 30.6277 9.84883 28.494 11.2509 27.092L11.4838 26.8591C8.17367 22.722 8.43398 16.6507 12.2661 12.8185C13.9805 11.1041 17.4697 9.97109 22.6367 9.45094C26.3538 9.07687 29.5641 9.15766 29.699 9.16109C30.3216 9.17789 30.8223 9.67859 30.8391 10.3012C30.8426 10.4359 30.9233 13.6463 30.5491 17.3634Z" fill="#7A5A5D"/>
</svg>
