<svg width="40" height="40" viewBox="0 0 40 40" fill="none" xmlns="http://www.w3.org/2000/svg">
<g clip-path="url(#clip0_105_380)">
<path d="M21.1903 17.3404V3.16938L35.2883 9.69592V23.6602L37.6754 22.3174V8.17056L20.0266 0L15.1047 2.00934L16.007 4.21943L18.8031 3.07799V17.3121L20.0186 18.0166L21.1903 17.3404Z" fill="#7A5A5D"/>
<path d="M4.72194 18.1182H2.33472V22.0458L4.72194 23.4243V18.1182Z" fill="#7A5A5D"/>
<path d="M2.41455 11.5132H4.80178V15.4123H2.41455V11.5132Z" fill="#7A5A5D"/>
<path d="M9.17773 4.61035L12.7883 3.1404L13.6882 5.3509L10.0777 6.82085L9.17773 4.61035Z" fill="#7A5A5D"/>
<path d="M2.97876 7.17334L6.58931 5.70339L7.48926 7.91388L3.87871 9.38384L2.97876 7.17334Z" fill="#7A5A5D"/>
<path d="M20.0118 32.2533L30.069 26.5962L20.0186 20.7744L10.0762 26.5159L20.0118 32.2533Z" fill="#7A5A5D"/>
<path d="M24.6565 11.4429V20.7028L29.841 23.7057V14.0195L24.6565 11.4429Z" fill="#7A5A5D"/>
<path d="M20 34.2729V40.0383L36.4851 30.5226V25L20 34.2729Z" fill="#7A5A5D"/>
<path d="M18.8032 34.2164L2.32471 24.7007V30.4839L18.8032 39.9998V34.2164Z" fill="#7A5A5D"/>
</g>
<defs>
<clipPath id="clip0_105_380">
<rect width="40" height="40" fill="white"/>
</clipPath>
</defs>
</svg>
