<svg width="40" height="40" viewBox="0 0 40 40" fill="none" xmlns="http://www.w3.org/2000/svg">
<g clip-path="url(#clip0_105_343)">
<path d="M10.9368 19.7584V27.5221H13.5952V24.2201H15.939V27.5221H18.6608V19.7866L14.7354 16.6875L10.9368 19.7584Z" fill="#7A5A5D"/>
<path d="M28.372 6.81953L22.5781 0.824219V6.81953H28.372Z" fill="#7A5A5D"/>
<path d="M20.2345 0H0V40H29.0436V9.16297H20.2345V0ZM23.808 20.8641L22.3557 22.7037L21.0047 21.6371V27.5223H23.0819V29.8661H6.45273V27.5223H8.5932V21.6533L7.18531 22.7914L5.71195 20.9688L14.7181 13.688L16.973 15.4681L16.976 13.224L19.3198 13.2272L19.3142 17.3165L23.808 20.8641Z" fill="#7A5A5D"/>
<path d="M31.6013 14.7549H40V30.3121H31.6013V14.7549Z" fill="#7A5A5D"/>
<path d="M40 4.19938C40 1.88383 38.1162 0 35.8007 0C33.4851 0 31.6013 1.88383 31.6013 4.19938V7.79977H40V4.19938Z" fill="#7A5A5D"/>
<path d="M35.9417 40.0002L39.5671 32.6562H32.0564L35.9417 40.0002Z" fill="#7A5A5D"/>
<path d="M31.6013 10.1436H40V12.4114H31.6013V10.1436Z" fill="#7A5A5D"/>
</g>
<defs>
<clipPath id="clip0_105_343">
<rect width="40" height="40" fill="white"/>
</clipPath>
</defs>
</svg>
