<svg width="40" height="40" viewBox="0 0 40 40" fill="none" xmlns="http://www.w3.org/2000/svg">
<g clip-path="url(#clip0_105_360)">
<path d="M25.7429 25.8513C27.2602 24.3619 28.2031 22.2891 28.2031 20C28.2031 15.4768 24.5232 11.7969 20 11.7969C18.0615 11.7969 16.4844 13.374 16.4844 15.3125C16.4844 17.251 18.0615 18.8281 20 18.8281C23.2309 18.8281 25.8594 21.4566 25.8594 24.6875C25.8594 25.0859 25.8191 25.475 25.7429 25.8513ZM20 16.4844C19.3528 16.4844 18.8281 15.9597 18.8281 15.3125C18.8281 14.6653 19.3528 14.1406 20 14.1406C20.6472 14.1406 21.1719 14.6653 21.1719 15.3125C21.1719 15.9597 20.6472 16.4844 20 16.4844Z" fill="#7A5A5D"/>
<path d="M23.5156 24.6873C23.5156 22.7488 21.9385 21.1716 20 21.1716C16.7691 21.1716 14.1406 18.5431 14.1406 15.3123C14.1406 14.9138 14.1809 14.5248 14.2571 14.1484C12.7398 15.6379 11.7969 17.7106 11.7969 19.9998C11.7969 24.523 15.4768 28.2029 20 28.2029C21.9385 28.2029 23.5156 26.6258 23.5156 24.6873ZM18.8281 24.6873C18.8281 24.0401 19.3528 23.5154 20 23.5154C20.6472 23.5154 21.1719 24.0401 21.1719 24.6873C21.1719 25.3345 20.6472 25.8591 20 25.8591C19.3528 25.8591 18.8281 25.3345 18.8281 24.6873Z" fill="#7A5A5D"/>
<path d="M12.3074 4.49088L10.8188 0.896973L0.896973 10.8188L4.49088 12.3074L12.3074 4.49088Z" fill="#7A5A5D"/>
<path d="M25.5272 3.59375L27.0158 0H12.9841L14.4727 3.59375H25.5272Z" fill="#7A5A5D"/>
<path d="M36.4062 14.473V25.5275L40 27.0161V12.9844L36.4062 14.473Z" fill="#7A5A5D"/>
<path d="M39.1029 10.8188L29.181 0.896973L27.6924 4.49088L35.5089 12.3074L39.1029 10.8188Z" fill="#7A5A5D"/>
<path d="M3.59375 14.473L0 12.9844V27.0161L3.59375 25.5275V14.473Z" fill="#7A5A5D"/>
<path d="M0.896973 29.1815L10.8188 39.1033L12.3074 35.5094L4.49088 27.6929L0.896973 29.1815Z" fill="#7A5A5D"/>
<path d="M27.6924 35.5094L29.181 39.1033L39.1029 29.1815L35.5089 27.6929L27.6924 35.5094Z" fill="#7A5A5D"/>
<path d="M14.4727 36.4062L12.9841 40H27.0158L25.5272 36.4062H14.4727Z" fill="#7A5A5D"/>
<path d="M5.9375 24.5562L9.86719 22.9285C9.59797 21.9982 9.45312 21.0156 9.45312 19.9998C9.45312 18.9839 9.59789 18.0013 9.86719 17.0711L5.9375 15.4434V24.5562Z" fill="#7A5A5D"/>
<path d="M34.0625 15.4434L30.1328 17.0711C30.4021 18.0013 30.5469 18.9839 30.5469 19.9998C30.5469 21.0156 30.402 21.9982 30.1328 22.9285L34.0625 24.5562V15.4434Z" fill="#7A5A5D"/>
<path d="M14.9073 10.7669L13.2784 6.83447L6.83472 13.2781L10.7671 14.907C11.7297 13.1688 13.1689 11.7295 14.9073 10.7669Z" fill="#7A5A5D"/>
<path d="M29.2332 14.9071L33.1656 13.2781L26.7219 6.83447L25.093 10.7669C26.8313 11.7295 28.2705 13.1687 29.2332 14.9071Z" fill="#7A5A5D"/>
<path d="M20 9.45312C21.0159 9.45312 21.9985 9.59789 22.9287 9.86719L24.5564 5.9375H15.4436L17.0713 9.86719C18.0016 9.59789 18.9842 9.45312 20 9.45312Z" fill="#7A5A5D"/>
<path d="M33.1654 26.7216L29.2329 25.0928C28.2703 26.8311 26.8311 28.2703 25.0928 29.2329L26.7217 33.1654L33.1654 26.7216Z" fill="#7A5A5D"/>
<path d="M22.9287 30.1328C21.9984 30.402 21.0159 30.5469 20 30.5469C18.9841 30.5469 18.0016 30.402 17.0713 30.1328L15.4436 34.0625H24.5565L22.9287 30.1328Z" fill="#7A5A5D"/>
<path d="M14.907 29.2329C13.1687 28.2703 11.7295 26.8311 10.7669 25.0928L6.83447 26.7216L13.2781 33.1653L14.907 29.2329Z" fill="#7A5A5D"/>
</g>
<defs>
<clipPath id="clip0_105_360">
<rect width="40" height="40" fill="white"/>
</clipPath>
</defs>
</svg>
